<mxfile host="app.diagrams.net" agent="Mozilla/5.0 (Macintosh; Intel Mac OS X 10_15_7) AppleWebKit/537.36 (KHTML, like Gecko) Chrome/131.0.0.0 Safari/537.36" version="26.0.6">
  <diagram name="第 1 页" id="KtgvKjFWB6XtBwiPh9eI">
    <mxGraphModel dx="1434" dy="717" grid="1" gridSize="10" guides="1" tooltips="1" connect="1" arrows="1" fold="1" page="1" pageScale="1" pageWidth="850" pageHeight="1100" math="0" shadow="0">
      <root>
        <mxCell id="0" />
        <mxCell id="1" parent="0" />
        <mxCell id="O2fK8Qc-7N3_8Rds8Wx0-1" value="" style="rounded=1;whiteSpace=wrap;html=1;container=1;" vertex="1" parent="1">
          <mxGeometry x="110" y="120" width="510" height="250" as="geometry" />
        </mxCell>
        <mxCell id="O2fK8Qc-7N3_8Rds8Wx0-2" value="入驻申请" style="rounded=0;whiteSpace=wrap;html=1;" vertex="1" parent="O2fK8Qc-7N3_8Rds8Wx0-1">
          <mxGeometry x="30" y="95" width="110" height="60" as="geometry" />
        </mxCell>
        <mxCell id="O2fK8Qc-7N3_8Rds8Wx0-3" value="商家入驻" style="text;html=1;align=center;verticalAlign=middle;whiteSpace=wrap;rounded=0;" vertex="1" parent="O2fK8Qc-7N3_8Rds8Wx0-1">
          <mxGeometry x="210" y="10" width="60" height="30" as="geometry" />
        </mxCell>
        <mxCell id="O2fK8Qc-7N3_8Rds8Wx0-4" value="" style="rounded=0;whiteSpace=wrap;html=1;" vertex="1" parent="O2fK8Qc-7N3_8Rds8Wx0-1">
          <mxGeometry x="185" y="95" width="110" height="60" as="geometry" />
        </mxCell>
      </root>
    </mxGraphModel>
  </diagram>
</mxfile>
